<?xml version="1.0" standalone="no"?>
<!DOCTYPE svg PUBLIC "-//W3C//DTD SVG 20010904//EN"
 "http://www.w3.org/TR/2001/REC-SVG-20010904/DTD/svg10.dtd">
<svg version="1.0" xmlns="http://www.w3.org/2000/svg"
 width="500.000000pt" height="500.000000pt" viewBox="0 0 500.000000 500.000000"
 preserveAspectRatio="xMidYMid meet">
<metadata>
Created by potrace 1.14, written by Peter Selinger 2001-2017
</metadata>
<g transform="translate(0.000000,500.000000) scale(0.100000,-0.100000)"
fill="#000000" stroke="none">
<path d="M1325 3460 c-11 -4 -24 -5 -30 -3 -5 3 5 -8 23 -25 17 -16 32 -35 32
-41 0 -7 5 -9 10 -6 6 3 10 1 10 -6 0 -6 20 -31 45 -55 24 -24 42 -44 39 -44
-5 0 8 -14 110 -122 30 -32 52 -58 50 -58 -3 0 1 -6 8 -14 7 -8 16 -12 19 -10
4 2 10 -7 13 -21 4 -14 10 -25 14 -25 4 0 18 -10 32 -21 14 -11 18 -18 10 -14
-8 4 -3 -4 13 -17 15 -14 27 -30 27 -37 0 -6 7 -11 16 -11 8 0 12 -4 9 -10 -3
-5 -3 -11 2 -11 34 -6 52 -5 48 1 -6 9 41 50 49 43 3 -4 6 -1 6 6 0 14 68 81
81 81 4 0 11 9 14 21 4 11 9 18 12 16 6 -7 63 53 63 66 0 6 3 8 6 4 4 -3 24
14 46 38 22 25 44 43 48 40 4 -3 13 9 20 26 11 26 11 32 -1 40 -8 5 -10 9 -6
9 5 0 -5 12 -22 26 -17 14 -28 30 -25 35 3 5 2 8 -3 7 -4 -2 -9 0 -11 4 -6 15
-77 83 -84 80 -5 -1 -8 2 -8 8 0 6 -10 6 -27 -1 -19 -7 -29 -7 -31 0 -2 7 -10
8 -20 2 -9 -5 -26 -5 -37 -1 -11 4 -28 3 -37 -2 -12 -6 -18 -5 -18 2 0 6 -5 8
-12 4 -15 -9 -58 -12 -58 -4 0 4 -22 4 -49 0 -27 -3 -58 -3 -68 1 -11 4 -26 3
-33 -1 -7 -5 -24 -4 -37 1 -13 5 -22 6 -20 1 3 -4 -28 -7 -69 -7 -41 0 -74 3
-74 7 0 4 -14 2 -32 -3 -18 -5 -34 -5 -37 0 -4 4 -15 5 -26 1z"/>
<path d="M2960 3451 c-29 -19 -75 -61 -67 -61 3 0 -9 -15 -26 -33 -18 -19 -35
-32 -39 -30 -8 4 -12 -13 -8 -32 1 -5 -1 -7 -5 -3 -4 4 -24 -11 -44 -34 -20
-23 -60 -66 -88 -96 -29 -31 -53 -60 -53 -64 0 -5 -4 -6 -10 -3 -5 3 -10 2
-10 -3 0 -6 -27 -38 -60 -73 -33 -34 -60 -67 -60 -71 0 -5 -4 -6 -10 -3 -5 3
-10 1 -10 -4 0 -6 -18 -30 -40 -52 -22 -23 -40 -46 -40 -51 0 -5 -4 -6 -10 -3
-5 3 -10 2 -10 -4 0 -5 -25 -36 -56 -67 -30 -32 -63 -67 -72 -79 -9 -11 -28
-28 -42 -38 -13 -9 -20 -17 -15 -17 6 0 -7 -17 -27 -38 -95 -95 -117 -120
-111 -126 4 -3 2 -6 -4 -6 -14 0 -48 -32 -56 -53 -4 -10 -11 -15 -17 -12 -5 3
-10 2 -10 -4 0 -6 -13 -24 -30 -41 -16 -17 -30 -35 -30 -41 0 -6 -4 -7 -10 -4
-5 3 -10 2 -10 -2 0 -5 -22 -32 -49 -60 -27 -28 -46 -55 -43 -59 4 -4 -1 -4
-11 -1 -10 4 -16 3 -12 -2 3 -5 -5 -17 -17 -25 -12 -9 -19 -16 -15 -16 4 0
-17 -24 -47 -54 -30 -30 -52 -57 -49 -59 2 -3 -5 -8 -16 -12 -12 -3 -21 -11
-21 -16 0 -5 -21 -30 -46 -54 -25 -25 -42 -45 -38 -45 4 0 -7 -11 -26 -25 -19
-14 -30 -25 -25 -25 5 0 -18 -26 -51 -57 -32 -31 -52 -53 -44 -48 8 4 6 -1 -5
-12 -11 -11 -23 -19 -27 -16 -5 2 -8 -2 -8 -9 0 -7 -16 -28 -35 -46 -36 -33
-33 -45 10 -38 11 2 30 -1 43 -5 12 -5 22 -5 22 -1 0 9 254 7 269 -2 6 -4 11
-3 11 2 0 9 133 7 149 -3 6 -3 11 -2 11 3 0 10 93 8 109 -3 6 -3 11 -2 11 3 0
5 15 8 33 7 28 -2 39 5 87 55 30 31 63 69 74 83 10 15 23 24 29 20 6 -3 7 -1
3 6 -4 6 0 14 8 17 9 3 14 10 11 14 -3 5 4 12 16 15 11 4 18 9 15 12 -3 4 14
26 39 50 25 23 43 43 40 43 -2 0 7 11 21 25 14 14 29 25 35 25 6 0 8 4 5 8 -2
4 30 45 73 90 43 45 76 82 73 82 -3 0 12 16 32 35 21 19 35 35 33 35 -3 0 18
24 47 54 60 63 101 109 138 153 14 18 29 29 32 26 3 -4 6 -1 6 5 0 6 20 31 44
56 24 25 42 46 39 46 -2 0 17 20 43 45 25 25 43 45 40 45 -4 0 18 25 49 55 30
31 55 58 55 60 0 12 34 43 42 39 4 -3 8 1 8 9 0 7 10 23 23 34 12 11 45 47 72
78 28 32 68 78 90 102 22 24 49 54 60 67 10 14 23 22 27 20 5 -3 7 -2 6 3 -2
5 9 22 25 38 15 16 27 33 27 38 0 4 5 5 10 2 6 -3 10 0 10 7 0 8 9 20 20 28
11 8 20 20 20 28 0 7 5 10 10 7 6 -3 10 -2 10 2 0 5 19 29 43 54 59 64 91 102
102 119 7 13 6 13 -7 2 -11 -9 -18 -10 -23 -2 -4 7 -12 7 -26 0 -12 -7 -19 -7
-19 -1 0 6 -11 6 -28 2 -15 -5 -37 -4 -50 0 -13 5 -21 5 -18 1 2 -4 -18 -7
-45 -7 -27 0 -49 3 -49 7 0 4 -11 3 -25 -2 -15 -6 -25 -6 -25 0 0 5 -12 5 -28
1 -15 -5 -37 -4 -50 0 -13 5 -21 5 -18 1 5 -8 -103 -6 -111 2 -3 3 -15 1 -27
-4 -13 -4 -29 -4 -39 1 -9 6 -17 6 -17 2 0 -10 -53 -11 -60 -2 -3 4 -16 -1
-30 -10z"/>
<path d="M3052 2093 c-62 -63 -112 -118 -112 -124 0 -5 -3 -8 -7 -6 -11 3 -53
-40 -53 -55 0 -6 -3 -8 -7 -5 -7 8 -53 -39 -53 -54 0 -6 -4 -8 -9 -5 -5 3 -11
-1 -15 -9 -3 -8 -1 -15 4 -15 6 0 10 -7 10 -16 0 -8 5 -12 10 -9 6 3 10 -1 10
-9 0 -9 5 -16 10 -16 6 0 10 -5 10 -11 0 -6 11 -20 25 -31 14 -11 23 -24 20
-29 -4 -5 2 -9 11 -9 10 0 15 -3 12 -6 -3 -3 5 -17 19 -32 22 -24 32 -27 98
-28 39 -1 77 -4 84 -8 6 -4 11 -3 11 2 0 10 93 8 109 -3 6 -3 11 -2 11 3 0 10
133 7 150 -3 5 -3 10 -3 10 2 0 4 67 7 150 7 152 -1 163 2 118 34 -10 7 -15
19 -12 25 4 7 4 9 -1 5 -4 -4 -22 9 -39 29 -17 20 -51 58 -76 85 -66 71 -69
75 -62 84 4 4 2 4 -4 1 -9 -5 -57 38 -59 52 0 2 -30 35 -67 73 -37 37 -66 68
-64 68 2 0 -20 25 -50 56 -30 30 -54 59 -54 63 0 24 -38 -5 -138 -106z"/>
</g>
</svg>
